<svg width="215" height="208" viewBox="0 0 215 208" fill="none" xmlns="http://www.w3.org/2000/svg">
<g clip-path="url(#clip0_1381_16943)">
<path d="M148.629 192.222L167.996 172.319L153.13 151.178C152.398 152.106 151.874 153.344 151.77 154.787L148.001 188.509C147.896 189.953 148.105 191.191 148.629 192.222ZM213.64 147.672L185.584 173.35L207.673 202.741C208.929 201.709 209.766 200.162 209.976 198.306L215.001 152.312C215.21 150.456 214.582 148.703 213.64 147.672Z" fill="#B0BDC6"/>
<path d="M174.905 182.633L167.996 172.32L148.629 192.223C149.048 193.152 149.78 193.77 150.618 193.977L203.799 203.877C205.265 204.186 206.626 203.67 207.673 202.742L185.584 173.352L174.905 182.633Z" fill="#CAD5DD"/>
<path d="M210.079 146.124L155.432 149.734C154.595 149.837 153.757 150.353 153.129 151.178L168.099 172.318L175.009 182.631L185.687 173.349L213.638 147.671C212.696 146.64 211.44 146.021 210.079 146.124" fill="#DFE9EF"/>
<path d="M184.849 166.339L185.477 161.08L167.157 160.977L164.121 185.623L181.918 189.748L182.651 184.489L169.251 181.911L169.984 176.239L183.384 178.095L184.012 172.836L170.507 171.495L171.24 165.72L184.849 166.339Z" fill="#428BC1"/>
</g>
<g clip-path="url(#clip1_1381_16943)">
<path d="M164.319 56.768V32.6811L156.771 25.8471L150.002 22.0547V52.5173C150.002 54.8692 151.927 56.768 154.297 56.768H164.319V56.768Z" fill="#4285F4"/>
<path d="M198.68 56.7677H208.701C211.078 56.7677 212.997 54.8619 212.997 52.517V22.0547L205.33 26.3984L198.68 32.6808V56.7677V56.7677Z" fill="#34A853"/>
<path d="M164.32 32.6808L163.293 23.2694L164.32 14.2617L181.5 27.0136L198.681 14.2617L199.83 22.7831L198.681 32.6808L181.5 45.4327L164.32 32.6808Z" fill="#EA4335"/>
<path d="M198.68 14.2626V32.6817L212.997 22.0553V16.3878C212.997 11.1313 206.933 8.13478 202.689 11.2872L198.68 14.2626Z" fill="#FBBC04"/>
<path d="M150 22.0554L156.585 26.9429L164.317 32.6818V14.2627L160.308 11.2873C156.056 8.13465 150 11.1314 150 16.3877V22.0552V22.0554Z" fill="#C5221F"/>
</g>
<path d="M40.7949 16.8672V28.5058L44.8065 31.0664C44.9514 31.0988 45.1014 31.0988 45.2462 31.0664L62.4946 19.2642C62.482 18.6914 62.2755 18.1405 61.9098 17.7039C61.5442 17.2674 61.0416 16.972 60.4866 16.8672H40.7949Z" fill="#0072C6"/>
<path d="M40.7948 32.847L44.4526 35.397C44.6239 35.5029 44.8205 35.5588 45.021 35.5588C45.2216 35.5588 45.4182 35.5029 45.5895 35.397C44.9614 35.7816 62.4923 23.9688 62.4923 23.9688V45.359C62.5381 45.7924 62.4899 46.2308 62.3513 46.6434C62.2126 47.0559 61.9868 47.4328 61.6896 47.7475C61.3925 48.0623 61.0312 48.3073 60.6309 48.4655C60.2307 48.6237 59.8013 48.6912 59.3726 48.6634H40.7927V32.847H40.7948ZM21.8589 27.4814C21.2512 27.4784 20.654 27.6424 20.1305 27.9559C19.6071 28.2694 19.177 28.7207 18.8858 29.2621C18.0904 30.6973 17.7088 32.3306 17.7845 33.9754C17.7018 35.6168 18.084 37.2479 18.8858 38.6759C19.1758 39.195 19.5953 39.6275 20.1022 39.9299C20.6091 40.2324 21.1854 40.3941 21.7734 40.3988C22.3614 40.4036 22.9402 40.2512 23.4517 39.9569C23.9633 39.6627 24.3895 39.237 24.6876 38.7226C25.4807 37.3012 25.8549 35.6786 25.7659 34.0476C25.8567 32.3654 25.4948 30.6899 24.719 29.2005C24.4417 28.6767 24.0288 28.2398 23.5248 27.9368C23.0207 27.6339 22.4447 27.4764 21.8589 27.4814V27.4814Z" fill="#0072C6"/>
<path d="M4.50781 10.9544V56.4868L38.6359 63.75V4.25L4.50781 10.9544ZM27.3464 41.4184C26.708 42.3318 25.8591 43.0729 24.8738 43.577C23.8884 44.0811 22.7965 44.3329 21.6933 44.3105C20.6179 44.3299 19.5537 44.0854 18.5913 43.5978C17.629 43.1101 16.7969 42.3938 16.1658 41.5098C14.6692 39.389 13.9205 36.8182 14.0407 34.2125C13.9133 31.479 14.6756 28.7789 16.2098 26.5285C16.8563 25.5976 17.7185 24.8424 18.7204 24.3295C19.7223 23.8167 20.8332 23.5618 21.955 23.5875C23.0227 23.5658 24.0793 23.8103 25.0321 24.2998C25.9849 24.7892 26.8048 25.5085 27.4197 26.3946C28.9014 28.5614 29.6373 31.1637 29.5135 33.7981C29.644 36.5119 28.8817 39.1926 27.3464 41.4184Z" fill="#0072C6"/>
<g clip-path="url(#clip2_1381_16943)">
<path d="M5 179.835C4.99957 176.398 6.22039 173.072 8.44465 170.451C10.6689 167.83 13.752 166.085 17.1438 165.526C19.0391 162.15 21.9047 159.42 25.3693 157.691C28.8339 155.962 32.7378 155.313 36.5755 155.828C40.4131 156.344 44.0076 157.999 46.8933 160.581C49.7791 163.163 51.8231 166.552 52.7606 170.309C55.7714 170.771 58.4964 172.354 60.3901 174.74C62.2838 177.126 63.2065 180.139 62.9734 183.176C62.7403 186.214 61.3687 189.051 59.133 191.12C56.8974 193.189 53.9628 194.337 50.9167 194.335H19.5C15.6544 194.335 11.9662 192.807 9.24695 190.088C6.52767 187.369 5 183.681 5 179.835V179.835Z" fill="#1478F1"/>
</g>
<line x1="138" y1="33.5" x2="85" y2="33.5" stroke="#C4C4C4"/>
<line x1="135" y1="175.5" x2="82" y2="175.5" stroke="#C4C4C4"/>
<line x1="186" y1="131.5" x2="186" y2="78.5" stroke="#C4C4C4"/>
<line x1="29.5" y1="131.5" x2="29.5" y2="78.5" stroke="#C4C4C4"/>
<defs>
<clipPath id="clip0_1381_16943">
<rect width="67" height="66" fill="white" transform="translate(148 142)"/>
</clipPath>
<clipPath id="clip1_1381_16943">
<rect width="63" height="47" fill="white" transform="translate(150 10)"/>
</clipPath>
<clipPath id="clip2_1381_16943">
<rect width="58" height="58" fill="white" transform="translate(5 146)"/>
</clipPath>
</defs>
</svg>
